<svg version="1.1" xmlns="http://www.w3.org/2000/svg" xmlns:xlink="http://www.w3.org/1999/xlink" width="34" height="34"><defs/><g><path fill="rgb(178,178,178)" stroke="none" paint-order="stroke fill markers" fill-rule="evenodd" d=" M 17.416440963745117 1.666203498840332 C 8.901750564575195 1.666203498840332 1.9998188018798828 8.56750226020813 1.9998188018798828 17.082281947135925 C 1.9998188018798828 25.59741473197937 8.901750564575195 32.49889004230499 17.416440963745117 32.49889004230499 C 25.93113136291504 32.49889004230499 32.83292007446289 25.59741473197937 32.83292007446289 17.082281947135925 C 32.83292007446289 8.56750226020813 25.93113136291504 1.666203498840332 17.416440963745117 1.666203498840332 Z M 17.416440963745117 30.09005606174469 C 10.232269287109375 30.09005606174469 4.40880012512207 24.267118334770203 4.40880012512207 17.082281947135925 C 4.40880012512207 9.898504853248596 10.232269287109375 4.074684381484985 17.416440963745117 4.074684381484985 C 24.60061264038086 4.074684381484985 30.424081802368164 9.898504853248596 30.424081802368164 17.082281947135925 C 30.424081802368164 24.267118334770203 24.60061264038086 30.09005606174469 17.416440963745117 30.09005606174469 Z M 18.744956970214844 9.852425575256348 C 19.270097732543945 9.557941913604736 19.49969482421875 9.367445588111877 19.49969482421875 9.367445588111877 C 19.49969482421875 9.367445588111877 14.484321594238281 9.367445588111877 14.484321594238281 9.367445588111877 C 13.479387283325195 9.367445588111877 10.688602447509766 10.508304953575134 10.688602447509766 13.173488020896912 C 10.688602447509766 15.838847637176514 13.582956314086914 16.411219358444214 14.633094787597656 16.36761176586151 C 14.044010162353516 17.086872220039368 14.548408508300781 17.743104696273804 14.864551544189453 18.07907736301422 C 15.178834915161133 18.41769826412201 15.114891052246094 18.523274540901184 14.738523483276367 18.523274540901184 C 14.360153198242188 18.523274540901184 9.702407836914062 18.5741206407547 9.702407836914062 21.908777356147766 C 9.702407836914062 25.243434071540833 15.891944885253906 25.484423398971558 17.92641830444336 23.68750810623169 C 19.96060562133789 21.889710068702698 19.520294189453125 19.41166889667511 17.947160720825195 18.292171955108643 C 16.373884201049805 17.171439170837402 15.786659240722656 16.642675042152405 16.793453216552734 15.75392758846283 C 17.800247192382812 14.865533232688904 18.598329544067383 14.147155523300171 18.598329544067383 12.496599316596985 C 18.598329544067383 10.846043109893799 17.23390769958496 10.0021390914917 17.23390769958496 10.0021390914917 C 17.23390769958496 10.0021390914917 18.219959259033203 10.149027824401855 18.744956970214844 9.852425575256348 Z M 17.96776008605957 21.739290356636047 C 17.96776008605957 23.17816436290741 16.746532440185547 23.87500309944153 14.672576904296875 23.87500309944153 C 12.596761703491211 23.87500309944153 11.484539031982422 22.839190363883972 11.484539031982422 21.295446276664734 C 11.484539031982422 19.750289797782898 12.995731353759766 18.989187240600586 15.828001022338867 18.989187240600586 C 16.59589958190918 19.580273151397705 17.96776008605957 20.29988670349121 17.96776008605957 21.739290356636047 Z M 14.968120574951172 15.710496544837952 C 12.470733642578125 15.710496544837952 11.337911605834961 9.875553488731384 14.275466918945312 9.875553488731384 C 16.561996459960938 9.790103793144226 18.28218650817871 15.710496544837952 14.968120574951172 15.710496544837952 Z M 23.24277114868164 11.304011106491089 C 23.24277114868164 11.304011106491089 23.24277114868164 9.406109809875488 23.24277114868164 9.406109809875488 C 23.24277114868164 9.406109809875488 22.262298583984375 9.406109809875488 22.262298583984375 9.406109809875488 C 22.262298583984375 9.406109809875488 22.262298583984375 11.304011106491089 22.262298583984375 11.304011106491089 C 22.262298583984375 11.304011106491089 20.342838287353516 11.304011106491089 20.342838287353516 11.304011106491089 C 20.342838287353516 11.304011106491089 20.342838287353516 12.28897774219513 20.342838287353516 12.28897774219513 C 20.342838287353516 12.28897774219513 22.262298583984375 12.28897774219513 22.262298583984375 12.28897774219513 C 22.262298583984375 12.28897774219513 22.262298583984375 14.18988037109375 22.262298583984375 14.18988037109375 C 22.262298583984375 14.18988037109375 23.24277114868164 14.18988037109375 23.24277114868164 14.18988037109375 C 23.24277114868164 14.18988037109375 23.24277114868164 12.28897774219513 23.24277114868164 12.28897774219513 C 23.24277114868164 12.28897774219513 25.13033103942871 12.28897774219513 25.13033103942871 12.28897774219513 C 25.13033103942871 12.28897774219513 25.13033103942871 11.304011106491089 25.13033103942871 11.304011106491089 C 25.13033103942871 11.304011106491089 23.24277114868164 11.304011106491089 23.24277114868164 11.304011106491089 C 23.24277114868164 11.304011106491089 23.24277114868164 11.304011106491089 23.24277114868164 11.304011106491089 Z"/></g></svg>