<svg version="1.1" xmlns="http://www.w3.org/2000/svg" xmlns:xlink="http://www.w3.org/1999/xlink" width="34" height="34"><defs/><g><path fill="rgb(178,178,178)" stroke="none" paint-order="stroke fill markers" fill-rule="evenodd" d=" M 17.249805450439453 1.9989982843399048 C 8.827239990234375 1.9989982843399048 1.999837875366211 8.82632303237915 1.999837875366211 17.249120712280273 C 1.999837875366211 25.672271490097046 8.827239990234375 32.49889004230499 17.249805450439453 32.49889004230499 C 25.672657012939453 32.49889004230499 32.499916076660156 25.672271490097046 32.499916076660156 17.249120712280273 C 32.499916076660156 8.82632303237915 25.672657012939453 1.9989982843399048 17.249805450439453 1.9989982843399048 Z M 17.249805450439453 30.116185307502747 C 10.143310546875 30.116185307502747 4.382640838623047 24.355745911598206 4.382640838623047 17.249120712280273 C 4.382640838623047 10.142495512962341 10.143310546875 4.381879568099976 17.249805450439453 4.381879568099976 C 24.356443405151367 4.381879568099976 30.11711311340332 10.142495512962341 30.11711311340332 17.249120712280273 C 30.11711311340332 24.355745911598206 24.356443405151367 30.116185307502747 17.249805450439453 30.116185307502747 Z M 9.630472183227539 24.867737889289856 C 9.630472183227539 24.867737889289856 12.489778518676758 24.867737889289856 12.489778518676758 24.867737889289856 C 12.489778518676758 24.867737889289856 12.489778518676758 13.429837107658386 12.489778518676758 13.429837107658386 C 12.489778518676758 13.429837107658386 9.630472183227539 13.429837107658386 9.630472183227539 13.429837107658386 C 9.630472183227539 13.429837107658386 9.630472183227539 24.867737889289856 9.630472183227539 24.867737889289856 Z M 21.067983627319336 13.429837107658386 C 18.620092391967773 13.471149563789368 17.41560173034668 15.255176782608032 17.25552749633789 15.336565852165222 C 17.25552749633789 15.336565852165222 17.25552749633789 13.429837107658386 17.25552749633789 13.429837107658386 C 17.25552749633789 13.429837107658386 14.396078109741211 13.429837107658386 14.396078109741211 13.429837107658386 C 14.396078109741211 13.429837107658386 14.396078109741211 24.867737889289856 14.396078109741211 24.867737889289856 C 14.396078109741211 24.867737889289856 17.25552749633789 24.867737889289856 17.25552749633789 24.867737889289856 C 17.25552749633789 24.867737889289856 17.25552749633789 18.195423126220703 17.25552749633789 18.195423126220703 C 17.25552749633789 17.950549721717834 17.858631134033203 15.991562485694885 20.11483383178711 16.28922402858734 C 21.326763153076172 16.368494510650635 21.980077743530273 17.971205949783325 22.021133422851562 18.195423126220703 C 22.021133422851562 18.195423126220703 22.021133422851562 24.867737889289856 22.021133422851562 24.867737889289856 C 22.021133422851562 24.867737889289856 24.869281768798828 24.880802512168884 24.869281768798828 24.880802512168884 C 24.869281768798828 24.880802512168884 24.869281768798828 16.962581753730774 24.869281768798828 16.962581753730774 C 24.76885986328125 15.819427251815796 24.197227478027344 13.470796465873718 21.067983627319336 13.429837107658386 Z M 11.060125350952148 9.617615461349487 C 10.270912170410156 9.617615461349487 9.630472183227539 10.2572523355484 9.630472183227539 11.047308921813965 C 9.630472183227539 11.837718605995178 10.270912170410156 12.476825833320618 11.060125350952148 12.476825833320618 C 11.849481582641602 12.476825833320618 12.489778518676758 11.837718605995178 12.489778518676758 11.047308921813965 C 12.489778518676758 10.2572523355484 11.849481582641602 9.617615461349487 11.060125350952148 9.617615461349487 Z"/></g></svg>