<svg version="1.1" xmlns="http://www.w3.org/2000/svg" xmlns:xlink="http://www.w3.org/1999/xlink" width="34" height="34"><defs/><g><path fill="rgb(178,178,178)" stroke="none" paint-order="stroke fill markers" fill-rule="evenodd" d=" M 17.499963760375977 1.9989982843399048 C 8.939067840576172 1.9989982843399048 1.9997997283935547 8.93843162059784 1.9997997283935547 17.49911403656006 C 1.9997997283935547 26.059973001480103 8.939067840576172 32.99887669086456 17.499963760375977 32.99887669086456 C 26.06071662902832 32.99887669086456 32.99984169006348 26.059973001480103 32.99984169006348 17.49911403656006 C 32.99984169006348 8.93843162059784 26.06071662902832 1.9989982843399048 17.499963760375977 1.9989982843399048 Z M 17.499963760375977 30.577154636383057 C 10.276739120483398 30.577154636383057 4.4217987060546875 24.721908450126648 4.4217987060546875 17.49911403656006 C 4.4217987060546875 10.276496171951294 10.276739120483398 4.421249985694885 17.499963760375977 4.421249985694885 C 24.722902297973633 4.421249985694885 30.577985763549805 10.276496171951294 30.577985763549805 17.49911403656006 C 30.577985763549805 24.721908450126648 24.722902297973633 30.577154636383057 17.499963760375977 30.577154636383057 Z M 21.1780948638916 15.126649141311646 C 21.1780948638916 15.126649141311646 18.48186683654785 15.126649141311646 18.48186683654785 15.126649141311646 C 18.48186683654785 15.126649141311646 18.48186683654785 13.158481359481812 18.48186683654785 13.158481359481812 C 18.48186683654785 12.555213570594788 19.106285095214844 12.41503369808197 19.397680282592773 12.41503369808197 C 19.68721580505371 12.41503369808197 21.139328002929688 12.41503369808197 21.139328002929688 12.41503369808197 C 21.139328002929688 12.41503369808197 21.139328002929688 9.759207725524902 21.139328002929688 9.759207725524902 C 21.139328002929688 9.759207725524902 19.143192291259766 9.749320983886719 19.143192291259766 9.749320983886719 C 16.419641494750977 9.749320983886719 15.797941207885742 11.729140996932983 15.797941207885742 12.998528003692627 C 15.797941207885742 12.998528003692627 15.797941207885742 15.126649141311646 15.797941207885742 15.126649141311646 C 15.797941207885742 15.126649141311646 13.82168960571289 15.126649141311646 13.82168960571289 15.126649141311646 C 13.82168960571289 15.126649141311646 13.82168960571289 17.862451791763306 13.82168960571289 17.862451791763306 C 13.82168960571289 17.862451791763306 15.797941207885742 17.862451791763306 15.797941207885742 17.862451791763306 C 15.797941207885742 21.375422954559326 15.797941207885742 25.2489070892334 15.797941207885742 25.2489070892334 C 15.797941207885742 25.2489070892334 18.48186683654785 25.2489070892334 18.48186683654785 25.2489070892334 C 18.48186683654785 25.2489070892334 18.48186683654785 21.335346341133118 18.48186683654785 17.862451791763306 C 18.48186683654785 17.862451791763306 20.761816024780273 17.862451791763306 20.761816024780273 17.862451791763306 C 20.761816024780273 17.862451791763306 21.1780948638916 15.126649141311646 21.1780948638916 15.126649141311646 Z"/></g></svg>