<svg version="1.1" xmlns="http://www.w3.org/2000/svg" xmlns:xlink="http://www.w3.org/1999/xlink" width="35" height="34"><defs/><g><path fill="rgb(178,178,178)" stroke="none" paint-order="stroke fill markers" fill-rule="evenodd" d=" M 17.499801635742188 1.498658537864685 C 8.801004409790039 1.498658537864685 1.7498703002929688 8.550200462341309 1.7498703002929688 17.249120712280273 C 1.7498703002929688 25.947864413261414 8.801004409790039 32.99887669086456 17.499801635742188 32.99887669086456 C 26.198741912841797 32.99887669086456 33.24987602233887 25.947864413261414 33.24987602233887 17.249120712280273 C 33.24987602233887 8.550200462341309 26.198741912841797 1.498658537864685 17.499801635742188 1.498658537864685 Z M 17.499801635742188 30.538137316703796 C 10.160276412963867 30.538137316703796 4.210779190063477 24.58879053592682 4.210779190063477 17.249120712280273 C 4.210779190063477 9.909450888633728 10.160276412963867 3.960280656814575 17.499801635742188 3.960280656814575 C 24.83946990966797 3.960280656814575 30.78896713256836 9.909450888633728 30.78896713256836 17.249120712280273 C 30.78896713256836 24.58879053592682 24.83946990966797 30.538137316703796 17.499801635742188 30.538137316703796 Z M 25.374910354614258 12.014620661735535 C 25.10955047607422 12.172278881072998 24.313756942749023 12.486712574958801 23.57146453857422 12.56580650806427 C 24.047395706176758 12.289330840110779 24.751922607421875 11.383987784385681 24.925872802734375 10.665080428123474 C 24.468538284301758 10.979337573051453 23.41754150390625 11.438011765480042 22.89883804321289 11.438011765480042 C 22.89883804321289 11.438011765480042 22.89883804321289 11.439600706100464 22.899696350097656 11.440659999847412 C 22.307321548461914 10.773834586143494 21.474763870239258 10.358238339424133 20.550081253051758 10.358238339424133 C 18.756362915039062 10.358238339424133 17.300960540771484 11.925110340118408 17.300960540771484 13.857791781425476 C 17.300960540771484 14.125616550445557 17.3305721282959 14.386202812194824 17.38435935974121 14.636902332305908 C 17.38435935974121 14.636902332305908 17.383501052856445 14.636902332305908 17.383501052856445 14.636902332305908 C 14.949485778808594 14.56981372833252 12.104055404663086 13.256112933158875 10.500595092773438 11.007232308387756 C 9.516117095947266 12.844047665596008 10.367986679077148 14.88601291179657 11.485788345336914 15.630343317985535 C 11.104270935058594 15.662122130393982 10.39874267578125 15.583028197288513 10.067150115966797 15.236286044120789 C 10.043975830078125 16.454120755195618 10.589000701904297 18.069014072418213 12.5731201171875 18.65445041656494 C 12.190458297729492 18.876372456550598 11.51568603515625 18.812814831733704 11.220714569091797 18.76426386833191 C 11.324569702148438 19.79495668411255 12.662527084350586 21.14043629169464 14.124795913696289 21.14043629169464 C 13.603517532348633 21.78854751586914 11.82539176940918 22.96771800518036 9.624835968017578 22.59237492084503 C 11.119720458984375 23.572221636772156 12.862512588500977 24.140003085136414 14.707157135009766 24.140003085136414 C 19.94926643371582 24.140003085136414 24.02035903930664 19.564560294151306 23.801204681396484 13.92134940624237 C 23.801204681396484 13.914110898971558 23.799345016479492 13.907931685447693 23.799345016479492 13.901929020881653 C 23.799345016479492 13.886922359466553 23.801204681396484 13.870856404304504 23.801204681396484 13.857791781425476 C 23.801204681396484 13.84031343460083 23.799345016479492 13.823011636734009 23.799345016479492 13.805003643035889 C 24.276134490966797 13.45473051071167 24.916288375854492 12.83363127708435 25.374910354614258 12.014620661735535 Z"/></g></svg>